<svg width="30" height="30" viewBox="0 0 30 30" fill="none" xmlns="http://www.w3.org/2000/svg">
<path d="M15 0C12.0333 0 9.13319 0.879735 6.66645 2.52796C4.19971 4.17618 2.27713 6.51886 1.14181 9.25975C0.00649933 12.0006 -0.290551 15.0166 0.288227 17.9264C0.867006 20.8361 2.29562 23.5088 4.3934 25.6066C6.49119 27.7044 9.16394 29.133 12.0737 29.7118C14.9834 30.2906 17.9994 29.9935 20.7403 28.8582C23.4811 27.7229 25.8238 25.8003 27.472 23.3335C29.1203 20.8668 30 17.9667 30 15C30 13.0302 29.612 11.0796 28.8582 9.25975C28.1044 7.43986 26.9995 5.78628 25.6066 4.3934C24.2137 3.00052 22.5601 1.89563 20.7403 1.14181C18.9204 0.387986 16.9698 0 15 0ZM15 3C18.0821 2.99877 21.0447 4.1924 23.265 6.33C20.973 7.6743 18.5443 8.77049 16.02 9.6C14.7637 7.43524 13.3234 5.38266 11.715 3.465C12.7829 3.1575 13.8887 3.00098 15 3ZM8.835 4.725C10.4065 6.52276 11.817 8.4552 13.05 10.5C10.1057 11.2311 7.08376 11.6038 4.05001 11.61H3.51001C4.36081 8.72946 6.26091 6.27271 8.835 4.725ZM6 22.965C4.04814 20.7731 2.97913 17.9349 3.00001 15C3.00001 14.85 3.00001 14.7 3.00001 14.565H4.02001C7.57107 14.5333 11.1021 14.0288 14.52 13.065C15 13.98 15.45 14.925 15.885 15.9C13.5472 16.7241 11.37 17.9472 9.45 19.515L9 19.875C7.93068 20.8354 6.92834 21.8678 6 22.965ZM15 27C12.6091 27.0053 10.2723 26.2891 8.295 24.945C9.02527 24.1074 9.80677 23.3159 10.635 22.575L11.115 22.17C12.8897 20.6773 14.9235 19.5232 17.115 18.765C18.017 21.204 18.7193 23.7122 19.215 26.265C17.8647 26.758 16.4375 27.0069 15 27ZM21.945 24.765C21.4542 22.4948 20.8128 20.2599 20.025 18.075H20.535C20.5941 18.0604 20.6559 18.0604 20.715 18.075H20.88H21.03H21.75C23.3285 18.0795 24.8952 18.3482 26.385 18.87C25.5665 21.2555 24.0118 23.3197 21.945 24.765ZM21.75 15C21.435 15 21.12 15 20.82 15C20.6258 14.9755 20.4292 14.9755 20.235 15C19.8273 15.025 19.4215 15.0751 19.02 15.15H18.87C18.435 14.145 17.985 13.17 17.49 12.15C20.1759 11.2276 22.7556 10.0207 25.185 8.55C26.3902 10.4841 27.0197 12.7213 27 15C27 15.255 27 15.51 27 15.765C25.3 15.2403 23.529 14.9823 21.75 15Z" fill="#E35336"/>
</svg>
