<svg width="30" height="30" viewBox="0 0 30 30" fill="none" xmlns="http://www.w3.org/2000/svg">
<path d="M0 15.0015C0.078 10.7441 1.581 7.18872 4.512 4.33843C7.443 1.48815 10.938 0.0390039 15 0C19.374 0.0780078 22.959 1.57216 25.752 4.48245C28.545 7.39274 29.961 10.9001 30 15.0015C29.922 19.2199 28.419 22.7663 25.488 25.6376C22.557 28.5059 19.062 29.961 15 30C13.593 30 12.189 29.784 10.782 29.3549C11.055 28.9259 11.328 28.4368 11.601 27.8908C11.913 27.2277 12.303 25.9766 12.774 24.1404C12.891 23.6334 13.068 22.9493 13.302 22.0882C13.575 22.5563 14.043 22.9853 14.709 23.3783C16.467 24.1974 18.321 24.1194 20.274 23.1443C22.305 21.9712 23.712 20.156 24.492 17.6958C25.194 15.1185 25.107 12.7243 24.228 10.5191C23.349 8.31083 21.777 6.72067 19.512 5.74257C16.662 4.92349 13.887 5.0105 11.193 6.0066C8.499 7.0027 6.624 8.71287 5.568 11.1341C5.295 12.0312 5.13 12.9223 5.07 13.8014C5.01 14.6805 5.04 15.5386 5.157 16.3786C5.274 17.2187 5.568 17.9718 6.036 18.6349C6.504 19.2979 7.131 19.808 7.911 20.159C8.106 20.237 8.262 20.237 8.379 20.159C8.535 20.081 8.691 19.769 8.847 19.2229C9.003 18.6769 9.063 18.3048 9.024 18.1098C8.985 18.0318 8.907 17.8938 8.79 17.6988C7.971 16.3696 7.695 14.9745 7.971 13.5104C8.244 12.0462 8.85 10.8041 9.786 9.78998C11.232 8.49985 12.921 7.79778 14.853 7.68077C16.785 7.56376 18.438 8.09181 19.803 9.26193C20.544 10.12 21.024 11.1551 21.237 12.3672C21.45 13.5794 21.453 14.7405 21.237 15.8536C21.021 16.9667 20.64 18.0108 20.094 18.9889C19.116 20.5131 17.964 21.2931 16.638 21.3321C15.858 21.2931 15.222 20.9901 14.733 20.423C14.244 19.856 14.097 19.2019 14.295 18.4608C14.373 18.0318 14.607 17.1917 14.997 15.9406C15.387 14.6895 15.603 13.7534 15.642 13.1293C15.525 11.6442 14.841 10.8821 13.59 10.8431C12.612 10.9601 11.892 11.4011 11.421 12.1602C10.95 12.9193 10.698 13.7924 10.659 14.7675C10.776 15.9016 10.953 16.6817 11.187 17.1107C10.758 18.8689 10.425 20.276 10.191 21.3291C10.113 21.6022 9.897 22.4422 9.546 23.8494C9.195 25.2565 9 26.3306 8.961 27.0717V28.7129C6.189 27.4227 3.999 25.5596 2.4 23.1173C0.801 20.6751 0 17.9688 0 15.0015Z" fill="#E35336"/>
</svg>
